HIERARCHY
ROOT hip
{
	OFFSET 0.000000 0.000000 0.000000 
	CHANNELS 6 Xposition Yposition Zposition Xrotation Zrotation Yrotation
	JOINT abdomen
	{
		OFFSET 0.000000 3.402643 0.000000 
		CHANNELS 3 Xrotation Zrotation Yrotation
		JOINT chest
		{
			OFFSET 0.000000 8.438565 -0.680529 
			CHANNELS 3 Xrotation Zrotation Yrotation
			JOINT neck
			{
				OFFSET 0.000000 10.207942 -0.272212 
				CHANNELS 3 Xrotation Zrotation Yrotation
				JOINT head
				{
					OFFSET 0.000000 3.130431 0.000000 
					CHANNELS 3 Xrotation Zrotation Yrotation
					End Site
					{
						OFFSET 0.000000 3.130435 0.000000 
					}
				}
			}
			JOINT lCollar
			{
				OFFSET 3.470700 6.669187 -0.816635 
				CHANNELS 3 Yrotation Zrotation Xrotation
				JOINT lShldr
				{
					OFFSET 3.198488 0.000000 0.000000 
					CHANNELS 3 Zrotation Yrotation Xrotation
					JOINT lForeArm
					{
						OFFSET 10.139888 0.000000 0.000000 
						CHANNELS 3 Yrotation Zrotation Xrotation
						JOINT lHand
						{
							OFFSET 8.370511 0.000000 0.000000 
							CHANNELS 3 Zrotation Yrotation Xrotation
							End Site
							{
								OFFSET 4.083176 0.000000 0.000000 
							}
						}
					}
				}
			}
			JOINT rCollar
			{
				OFFSET -3.470700 6.669187 -0.816635 
				CHANNELS 3 Yrotation Zrotation Xrotation
				JOINT rShldr
				{
					OFFSET -3.198488 0.000000 0.000000 
					CHANNELS 3 Zrotation Yrotation Xrotation
					JOINT rForeArm
					{
						OFFSET -10.139888 0.000000 0.000000 
						CHANNELS 3 Yrotation Zrotation Xrotation
						JOINT rHand
						{
							OFFSET -8.370511 0.000000 0.000000 
							CHANNELS 3 Zrotation Yrotation Xrotation
							End Site
							{
								OFFSET -4.083176 0.000000 0.000000 
							}
						}
					}
				}
			}
		}
	}
	JOINT lThigh
	{
		OFFSET 5.308129 -1.633274 1.361059 
		CHANNELS 3 Xrotation Zrotation Yrotation
		JOINT lShin
		{
			OFFSET -2.041588 -20.007561 0.000000 
			CHANNELS 3 Xrotation Zrotation Yrotation
			JOINT lFoot
			{
				OFFSET 0.000000 -19.190928 -1.224953 
				CHANNELS 3 Xrotation Yrotation Zrotation
				End Site
				{
					OFFSET 0.000000 -2.449906 4.627600 
				}
			}
		}
	}
	JOINT rThigh
	{
		OFFSET -5.308129 -1.633274 1.361059 
		CHANNELS 3 Xrotation Zrotation Yrotation
		JOINT rShin
		{
			OFFSET 2.041588 -20.007561 0.000000 
			CHANNELS 3 Xrotation Zrotation Yrotation
			JOINT rFoot
			{
				OFFSET 0.000000 -19.190928 -1.224953 
				CHANNELS 3 Xrotation Yrotation Zrotation
				End Site
				{
					OFFSET 0.000000 -2.449906 4.627600 
				}
			}
		}
	}
}
MOTION
Frames: 11
Frame Time: 0.033333
3.469922 41.561745 -49.693649 9.833984 1.230469 24.785156 18.447266 8.164063 -2.929688 -24.160156 0.361328 -4.746089 -12.607423 -3.173828 -4.150391 18.447266 -1.953125 -4.980468 2.978516 11.562499 0.593746 -46.953129 -23.212889 8.554688 -30.029299 -3.476563 -52.041012 -0.625000 30.566404 -1.118081 -13.681641 -3.925781 0.107422 47.402344 33.339848 -8.691406 46.132813 2.939453 -31.005863 0.996094 -10.546874 -0.636551 -0.216091 8.997758 13.674512 44.384071 -0.671395 -2.889325 -38.295742 16.995922 7.958080 -57.158623 -24.577513 8.241550 42.459579 0.501060 2.565797 5.905630 12.768122 3.904084 
2.747861 41.578938 -49.144695 12.832032 0.175781 25.312517 21.152344 9.384766 -3.251953 -23.457031 1.064453 -5.595704 -14.931641 -3.281250 -3.604075 14.941407 -1.591797 -4.277616 2.773438 13.486329 0.525066 -43.427734 -12.011719 5.146484 -26.494141 -3.574219 -57.167969 2.910156 32.343750 0.751953 -14.560548 -3.925781 0.048828 38.710938 29.423830 -15.205078 48.330082 2.880859 -27.568649 3.544922 -10.468750 -1.036931 -2.987437 9.824917 13.522692 43.500408 -0.595542 -2.981332 -37.080215 17.123987 7.818901 -59.731506 -23.914774 8.482058 41.927757 0.208370 2.609100 7.185620 13.101183 3.322162 
1.990587 41.559494 -48.451805 15.820313 -1.416016 26.181398 23.496096 10.488281 -3.250176 -22.392576 1.582031 -6.093480 -17.763672 -3.769531 -3.183594 11.083984 -0.712891 -4.111328 2.714844 14.726563 0.634766 -41.572266 -0.390625 7.578125 -24.726563 -3.613281 -59.130245 4.130859 32.841797 1.328125 -14.902343 -4.140625 0.147190 31.679688 22.900391 -19.888775 46.083984 2.744141 -21.230469 5.732421 -9.316406 -1.416016 -6.336570 12.074915 14.198129 43.661423 -0.712957 -2.868789 -35.039471 16.178392 5.997557 -63.144695 -23.347429 8.308917 43.671303 0.032241 2.970358 6.638509 13.061680 3.734374 
1.183990 41.545856 -47.659199 18.281250 -3.525391 27.577768 25.332031 11.660156 -2.841797 -21.513672 1.757813 -6.415716 -20.019531 -4.003906 -3.691406 7.216797 -0.195313 -4.824218 2.656250 15.791015 0.739530 -41.669926 9.082031 10.048828 -22.792969 -3.662110 -55.048832 2.636719 33.583984 0.615234 -15.263673 -3.759766 0.048828 28.798826 14.755858 -23.662111 40.576172 2.646484 -20.244593 4.775391 -8.671875 -1.124519 -10.350384 15.347556 16.410732 45.445160 -0.908557 -2.503876 -32.368515 13.193052 3.419358 -65.970299 -23.192068 7.677061 45.975227 0.165953 2.572836 4.585299 12.982328 4.323413 
0.414858 41.554039 -46.822723 20.039063 -5.283204 29.335037 26.953127 12.216798 -2.283090 -20.986326 1.933594 -6.220374 -21.005859 -4.335938 -4.893317 3.710938 -0.214844 -5.878943 2.529297 15.078126 0.661522 -41.972656 16.093752 12.060548 -22.578125 -3.613281 -53.300167 3.681641 33.212891 1.103516 -15.097657 -3.203125 0.029297 28.925779 7.050781 -26.210936 34.960938 2.646484 -21.455528 -0.664063 -8.808595 -0.380859 -14.599149 18.953321 18.911076 48.945889 -0.577586 -3.246748 -29.254841 10.889883 0.868260 -68.419006 -23.016056 6.974321 48.778515 -0.022117 2.805600 2.800107 11.202757 4.507531 
-0.250883 41.602528 -46.028927 21.093750 -6.337891 31.268456 28.359375 12.167969 -1.560442 -20.458984 1.923828 -5.673829 -22.158203 -4.482422 -6.114045 1.962891 -0.576172 -7.187597 3.271484 13.505859 0.576172 -43.085941 19.648438 11.523437 -22.998047 -3.525391 -50.303024 4.111328 31.962891 1.318359 -15.283204 -2.646484 -0.019531 31.083982 0.947266 -27.587891 32.871094 2.812500 -24.600090 -7.802735 -9.941406 0.830078 -18.768759 21.970438 20.781368 52.818157 -0.092030 -3.043245 -26.486046 7.399449 -1.608728 -69.918755 -23.026897 6.879289 51.046238 0.000067 3.072933 2.017745 9.442340 4.652524 
-0.752058 41.706394 -45.358204 21.796875 -6.865235 32.664848 29.375002 11.738280 -0.779263 -19.414063 0.869141 -4.931641 -23.818359 -3.779297 -7.617188 0.908203 -1.113281 -8.476752 4.687500 12.480469 0.507812 -45.087887 19.980471 8.011150 -23.671877 -3.496094 -48.222656 3.789063 30.566404 1.093750 -16.171877 -1.582031 0.068359 34.306641 -1.826172 -28.642576 31.210936 2.871094 -27.294926 -11.191406 -8.232423 1.142578 -21.608891 24.016567 22.440338 55.628811 -0.256803 -3.241692 -24.535391 2.643788 -4.223244 -70.461906 -23.026068 6.636532 52.449162 -0.371114 2.982754 1.008488 8.733007 4.518546 
-1.077162 41.838474 -44.828812 22.324219 -6.865235 33.367973 29.677736 11.181641 -0.261778 -18.369141 -0.546875 -4.023537 -24.785158 -2.880860 -8.974608 0.214844 -1.474609 -9.560547 5.917969 11.806641 0.488281 -47.763672 18.974611 2.500000 -24.951172 -3.466797 -47.470703 4.648438 28.964844 1.440278 -16.884766 -0.419922 -0.156178 37.275387 -2.138672 -27.802734 29.365234 2.939453 -27.246094 -13.671874 -7.402343 1.326869 -23.505024 24.440842 24.844614 56.675652 0.073321 -3.308492 -21.771898 -2.691582 -6.489460 -70.635170 -23.728357 6.087636 53.354736 -0.009740 3.019984 -0.185997 9.189810 5.001705 
-1.267104 41.980278 -44.426517 22.500000 -6.689453 33.895866 29.804688 10.468750 0.245915 -18.027344 -1.777344 -3.310850 -25.410156 -2.656250 -10.058593 0.214844 -1.650391 -10.439453 6.455078 11.113281 0.457102 -50.361328 17.626953 -1.754855 -26.298828 -3.496094 -47.811905 5.478516 26.992189 1.781778 -16.181641 0.126953 -0.175803 39.785156 -2.363281 -24.892576 28.232422 2.773437 -24.443361 -12.646484 -8.134767 1.396484 -24.236185 24.310194 26.155735 56.668034 -0.425092 -3.235766 -18.064405 -4.347429 -6.687449 -70.640511 -24.266853 5.398043 53.858505 -0.156045 3.321001 -0.808193 9.721237 5.058716 
-1.358517 42.095169 -44.126789 22.314453 -6.337891 34.090721 29.931641 9.804688 0.587601 -18.378906 -2.304688 -2.792969 -25.019529 -3.271484 -10.693917 0.556641 -1.298828 -11.299049 6.318359 10.039063 0.439453 -53.095703 16.884766 -4.697266 -27.773439 -3.505859 -49.736332 5.761719 25.400391 1.683878 -14.951171 -0.253906 -0.097613 41.689453 -2.187500 -20.761599 28.164063 2.714844 -21.738745 -10.351563 -9.648438 1.189770 -24.441313 23.861404 26.216673 57.546749 -0.102891 -3.113298 -16.566292 -2.614123 -6.004164 -69.446594 -24.226862 4.866020 53.345356 0.000091 3.014579 -1.150329 10.657177 5.063766 
-1.390530 42.149948 -43.938747 21.796875 -5.986328 34.081013 30.058594 9.257813 1.142578 -19.433594 -2.294922 -2.128906 -23.935547 -4.375000 -11.093749 0.556641 -0.771484 -12.001954 5.849609 8.779296 0.292969 -56.054691 16.152344 -8.740234 -29.628906 -3.574219 -50.429691 6.005859 24.853516 1.904297 -13.896485 -0.810547 -0.048828 42.734375 -1.162109 -16.709183 28.564453 2.421875 -17.627365 -7.470702 -10.644531 0.847805 -24.226402 23.402390 25.397493 58.604294 0.064415 -3.230947 -17.280291 -2.033013 -5.721194 -68.428429 -24.404776 4.412795 52.837132 -0.192332 2.909531 -1.364835 11.529192 5.254608 
